<svg width="12" height="10" viewBox="0 0 12 10" fill="none" xmlns="http://www.w3.org/2000/svg">
<path d="M11.8999 3.33645L9.09973 0.136498C9.06229 0.0937399 9.01616 0.0594505 8.96443 0.0359141C8.9127 0.0123776 8.85654 0.00013437 8.79971 0H3.19932C3.14248 0.00013437 3.08633 0.0123776 3.0346 0.0359141C2.98286 0.0594505 2.93674 0.0937399 2.8993 0.136498L0.0991059 3.33645C0.0337801 3.41103 -0.00152039 3.5072 5.02462e-05 3.60633C0.00162089 3.70546 0.0399507 3.80047 0.107607 3.87294L5.70799 9.87285C5.74542 9.91297 5.79071 9.94496 5.84103 9.96684C5.89135 9.98871 5.94564 10 6.00051 10C6.05539 10 6.10967 9.98871 6.16 9.96684C6.21032 9.94496 6.2556 9.91297 6.29303 9.87285L11.8934 3.87294C11.9608 3.80022 11.9988 3.70507 12 3.60594C12.0012 3.50682 11.9655 3.41078 11.8999 3.33645ZM10.7183 3.19995H8.59969L6.79957 0.799987H8.61819L10.7183 3.19995ZM3.32833 3.99994L4.83493 7.76638L1.31969 3.99994H3.32833ZM7.80864 3.99994L5.99951 8.52287L4.19039 3.99994H7.80864ZM4.3994 3.19995L5.99951 1.06648L7.59962 3.19995H4.3994ZM8.6707 3.99994H10.6793L7.16409 7.76638L8.6707 3.99994ZM3.38083 0.799987H5.19946L3.39933 3.19995H1.28069L3.38083 0.799987Z" fill="#000"/>
</svg>
