<?xml version="1.0" encoding="UTF-8" standalone="no"?>
<svg
   width="82.900002"
   height="40.400002"
   viewBox="0 0 82.9 40.400003"
   version="1.1"
   style="fill:none"
   xmlns="http://www.w3.org/2000/svg"
   xmlns:svg="http://www.w3.org/2000/svg">
  <path
     d="M 0,29.6 V 10.8 c 0,-0.4 0.3,-0.6 0.8,-0.7 h 5.1 c 1.7,0 3.1,0.5 4.1,1.4 1,0.9 1.5,2.4 1.5,4.4 v 0.3 c 0,2 -0.5,3.5 -1.6,4.5 -1,0.9 -2.4,1.4 -4.2,1.4 h -4 v 7.5 C 1.7,29.8 1.6,30 1.4,30.1 1.2,30.2 1,30.3 0.8,30.3 0.5,30.3 0.3,30.2 0.2,30.1 0.1,30 0,29.8 0,29.6 Z m 1.9,-9 h 4 c 1.3,0 2.2,-0.3 2.9,-1 0.7,-0.7 1,-1.8 1,-3.2 v -0.3 c 0,-2.8 -1.3,-4.2 -3.9,-4.2 h -4 z"
     style="fill:#000;" />
  <path
     d="m 14.4,24.5 v -8.6 c 0,-2 0.5,-3.5 1.6,-4.5 1,-0.9 2.4,-1.4 4.2,-1.4 1.8,0 3.1,0.5 4.2,1.4 1,0.9 1.6,2.4 1.6,4.5 v 8.6 c 0,2 -0.5,3.5 -1.6,4.5 -1,0.9 -2.4,1.4 -4.2,1.4 -1.8,0 -3.1,-0.5 -4.2,-1.4 -1.1,-1 -1.6,-2.5 -1.6,-4.5 z m 1.8,0 c 0,2.8 1.3,4.2 3.9,4.2 2.6,0 3.9,-1.4 3.9,-4.2 v -8.6 c 0,-2.8 -1.3,-4.2 -3.9,-4.2 -2.6,0 -3.9,1.4 -3.9,4.2 z"
     style="fill:#000;" />
  <path
     d="m 29.6,24.35 v -8.6 c 0,-2 0.5,-3.5 1.6,-4.4 1.1,-1 2.5,-1.4 4.2,-1.4 1.7,0 3.1,0.4 4.2,1.3 1,0.9 1.5,2 1.5,3.3 0,0.4 -0.1,0.7 -0.2,0.9 -0.1,0.1 -0.4,0.2 -0.7,0.2 -0.6,0 -0.9,-0.2 -0.9,-0.7 0,-0.3 -0.1,-0.5 -0.1,-0.8 -0.1,-0.3 -0.2,-0.5 -0.3,-0.9 -0.2,-0.3 -0.4,-0.6 -0.6,-0.8 -0.3,-0.2 -0.6,-0.4 -1.1,-0.6 -0.5,-0.2 -1,-0.2 -1.7,-0.2 -2.6,0 -4,1.4 -4,4.2 v 8.6 c 0,2.8 1.4,4.2 4.1,4.2 0.8,0 1.4,-0.1 1.9,-0.3 0.5,-0.2 0.9,-0.5 1.1,-0.9 0.2,-0.4 0.4,-0.7 0.5,-1 0.1,-0.3 0.2,-0.7 0.2,-1.1 0.1,-0.5 0.4,-0.7 0.9,-0.7 0.3,0 0.6,0.1 0.7,0.2 0.1,0.2 0.2,0.5 0.2,0.9 0,1.3 -0.5,2.4 -1.6,3.3 -1,0.9 -2.4,1.4 -4.2,1.4 -1.7,0 -3.1,-0.5 -4.1,-1.4 -1.1,-1.2 -1.6,-2.7 -1.6,-4.7 z"
     style="fill:#000;" />
  <path
     d="m 43.4,29.5 c 0,-0.2 0.1,-0.4 0.2,-0.6 l 9.2,-17.2 h -8.3 c -0.2,0 -0.4,-0.1 -0.5,-0.2 -0.1,-0.2 -0.2,-0.4 -0.2,-0.6 0,-0.2 0.1,-0.4 0.2,-0.6 0.1,-0.2 0.3,-0.2 0.5,-0.2 h 10 c 0.5,0 0.7,0.2 0.7,0.6 0,0.2 -0.1,0.5 -0.2,0.7 l -9.2,17.2 h 9 c 0.2,0 0.4,0.1 0.5,0.2 0.1,0.2 0.2,0.4 0.2,0.6 0,0.2 -0.1,0.4 -0.2,0.6 -0.1,0.2 -0.3,0.3 -0.5,0.3 H 44.1 c -0.5,-0.2 -0.7,-0.4 -0.7,-0.8 z"
     style="fill:#000;" />
  <path
     d="m 57.2,11 c 0,-0.2 0.1,-0.4 0.2,-0.6 0.1,-0.2 0.3,-0.3 0.5,-0.3 H 69 c 0.2,0 0.4,0.1 0.5,0.2 0.1,0.2 0.2,0.4 0.2,0.6 0,0.2 -0.1,0.4 -0.2,0.6 -0.1,0.2 -0.3,0.3 -0.5,0.3 h -4.6 v 17.8 c 0,0.2 -0.1,0.4 -0.3,0.5 -0.2,0.1 -0.4,0.2 -0.6,0.2 -0.3,0 -0.5,-0.1 -0.6,-0.2 C 62.7,30 62.6,29.8 62.6,29.6 V 11.8 H 58 c -0.2,0 -0.4,-0.1 -0.5,-0.2 -0.3,-0.2 -0.3,-0.4 -0.3,-0.6 z"
     style="fill:#000;" />
  <path
     d="m 69.1,29.55 c 0,-0.1 0,-0.2 0,-0.2 l 5.8,-18.7 c 0.1,-0.4 0.5,-0.6 1.1,-0.6 0.6,0 0.9,0.2 1.1,0.6 l 5.8,18.8 c 0,0 0,0 0,0.1 v 0.1 c 0,0.2 -0.1,0.4 -0.4,0.5 -0.2,0.2 -0.5,0.2 -0.7,0.2 -0.3,0 -0.6,-0.2 -0.7,-0.5 l -1.3,-4.3 h -7.6 l -1.3,4.3 c -0.1,0.3 -0.3,0.5 -0.7,0.5 -0.3,0 -0.5,-0.1 -0.7,-0.2 -0.3,-0.2 -0.4,-0.4 -0.4,-0.6 z m 3.5,-5.6 h 6.7 L 76,12.85 Z"
     style="fill:#000;" />
</svg>
