<?xml version="1.0" encoding="UTF-8" standalone="no"?>
<svg
   width="261.20001"
   height="40.400002"
   viewBox="0 0 261.20002 40.400002"
   version="1.1"
   style="fill:none"
   xmlns="http://www.w3.org/2000/svg"
   xmlns:svg="http://www.w3.org/2000/svg">
  <defs
     id="defs252" />
  <path
     d="M 40.4,20.2 C 40.4,31.4 31.3,40.4 20.2,40.4 9,40.4 0,31.3 0,20.2 0,9 9.1,0 20.2,0 31.3,0 40.4,9 40.4,20.2 Z"
     style="fill:#ffd200"
  />
  <path
     d="m 58.6,30.8 c -6,0 -10.7,-4.7 -10.7,-10.7 0,-6 4.7,-10.7 10.7,-10.7 6,0 10.7,4.7 10.7,10.7 0,6 -4.6,10.7 -10.7,10.7 z m 0,-16.1 c -3.1,0 -5.4,2.3 -5.4,5.5 0,3.2 2.3,5.5 5.4,5.5 3.1,0 5.4,-2.3 5.4,-5.5 0,-3.2 -2.2,-5.5 -5.4,-5.5 z"
     style="fill:#000000"
  />
  <path
     d="M 85.3,30.3 V 18.5 c 0,-2.6 -1.5,-4.1 -3.9,-4.1 -2.8,0 -4.3,2.3 -4.4,2.8 V 30.3 H 71.7 V 10.1 h 4.7 v 2.1 c 1.2,-1.7 4,-2.7 6.6,-2.7 2.2,0 4.1,0.8 5.5,2.2 1.5,1.5 2.2,3.7 2.2,6.2 v 12.4 z"
     style="fill:#000000"
  />
  <path
     d="m 124.9,30.6 c -2.3,0 -4.1,-0.6 -5.3,-1.7 -1.1,-1.1 -1.7,-2.8 -1.7,-5.1 V 15.1 H 115 v -5 h 2.9 V 5.4 l 5.3,-1.3 v 6 h 5.3 v 5 h -5.3 v 8.8 c 0,0.8 0.5,1.8 2.6,1.8 1,0 2.6,-0.2 2.6,-0.2 v 4.7 c -1.1,0.3 -2.4,0.4 -3.5,0.4 z"
     style="fill:#000000"
  />
  <path
     d="m 104,30.9 c -6.5,0 -11.1,-4.4 -11.1,-10.7 0,-6.2 4.5,-10.7 10.7,-10.7 5.8,0 10.2,4.6 10.2,10.7 0,0.7 -0.1,1.4 -0.2,2.1 v 0.1 H 98.5 c 0.7,2.4 2.7,3.7 5.6,3.7 2.4,0 3.8,-1.2 4.2,-1.7 l 4.4,2.4 c -1.9,2.6 -4.9,4.1 -8.7,4.1 z m 4.5,-12.7 c -0.6,-2.5 -2.4,-3.9 -4.9,-3.9 -2.7,0 -4.6,1.4 -5.2,3.9 z"
     style="fill:#000000"
  />
  <path
     d="M 143.9,29.6 V 10.8 c 0,-0.4 0.3,-0.6 0.8,-0.7 h 5.1 c 1.7,0 3.1,0.5 4.1,1.4 1,0.9 1.5,2.4 1.5,4.4 v 0.3 c 0,2 -0.5,3.5 -1.6,4.5 -1,0.9 -2.4,1.4 -4.2,1.4 h -4 v 7.5 c 0,0.2 -0.1,0.4 -0.3,0.5 -0.2,0.1 -0.4,0.2 -0.6,0.2 -0.3,0 -0.5,-0.1 -0.6,-0.2 -0.1,-0.1 -0.2,-0.3 -0.2,-0.5 z m 1.9,-9 h 4 c 1.3,0 2.2,-0.3 2.9,-1 0.7,-0.7 1,-1.8 1,-3.2 v -0.3 c 0,-2.8 -1.3,-4.2 -3.9,-4.2 h -4 z"
     style="fill:#000000"
  />
  <path
     d="M 158.3,24.6 V 16 c 0,-2 0.5,-3.5 1.6,-4.5 1,-0.9 2.4,-1.4 4.2,-1.4 1.8,0 3.1,0.5 4.2,1.4 1,0.9 1.6,2.4 1.6,4.5 v 8.6 c 0,2 -0.5,3.5 -1.6,4.5 -1,0.9 -2.4,1.4 -4.2,1.4 -1.8,0 -3.1,-0.5 -4.2,-1.4 -1.1,-1 -1.6,-2.5 -1.6,-4.5 z m 1.8,0 c 0,2.8 1.3,4.2 3.9,4.2 2.6,0 3.9,-1.4 3.9,-4.2 V 16 c 0,-2.8 -1.3,-4.2 -3.9,-4.2 -2.6,0 -3.9,1.4 -3.9,4.2 z"
     style="fill:#000000"
  />
  <path
     d="M 173.5,24.6 V 16 c 0,-2 0.5,-3.5 1.6,-4.4 1.1,-1 2.5,-1.4 4.2,-1.4 1.7,0 3.1,0.4 4.2,1.3 1,0.9 1.5,2 1.5,3.3 0,0.4 -0.1,0.7 -0.2,0.9 -0.1,0.1 -0.4,0.2 -0.7,0.2 -0.6,0 -0.9,-0.2 -0.9,-0.7 0,-0.3 -0.1,-0.5 -0.1,-0.8 -0.1,-0.3 -0.2,-0.5 -0.3,-0.9 -0.2,-0.3 -0.4,-0.6 -0.6,-0.8 -0.3,-0.2 -0.6,-0.4 -1.1,-0.6 -0.5,-0.2 -1,-0.2 -1.7,-0.2 -2.6,0 -4,1.4 -4,4.2 v 8.6 c 0,2.8 1.4,4.2 4.1,4.2 0.8,0 1.4,-0.1 1.9,-0.3 0.5,-0.2 0.9,-0.5 1.1,-0.9 0.2,-0.4 0.4,-0.7 0.5,-1 0.1,-0.3 0.2,-0.7 0.2,-1.1 0.1,-0.5 0.4,-0.7 0.9,-0.7 0.3,0 0.6,0.1 0.7,0.2 0.1,0.2 0.2,0.5 0.2,0.9 0,1.3 -0.5,2.4 -1.6,3.3 -1,0.9 -2.4,1.4 -4.2,1.4 -1.7,0 -3.1,-0.5 -4.1,-1.4 -1.1,-1.2 -1.6,-2.7 -1.6,-4.7 z"
     style="fill:#000000"
  />
  <path
     d="m 187.3,29.7 c 0,-0.2 0.1,-0.4 0.2,-0.6 l 9.2,-17.2 h -8.3 c -0.2,0 -0.4,-0.1 -0.5,-0.2 -0.1,-0.2 -0.2,-0.4 -0.2,-0.6 0,-0.2 0.1,-0.4 0.2,-0.6 0.1,-0.2 0.3,-0.2 0.5,-0.2 h 10 c 0.5,0 0.7,0.2 0.7,0.6 0,0.2 -0.1,0.5 -0.2,0.7 l -9.2,17.2 h 9 c 0.2,0 0.4,0.1 0.5,0.2 0.1,0.2 0.2,0.4 0.2,0.6 0,0.2 -0.1,0.4 -0.2,0.6 -0.1,0.2 -0.3,0.3 -0.5,0.3 H 188 c -0.5,-0.2 -0.7,-0.4 -0.7,-0.8 z"
     style="fill:#000000"
  />
  <path
     d="m 201.1,11 c 0,-0.2 0.1,-0.4 0.2,-0.6 0.1,-0.2 0.3,-0.3 0.5,-0.3 h 11.1 c 0.2,0 0.4,0.1 0.5,0.2 0.1,0.2 0.2,0.4 0.2,0.6 0,0.2 -0.1,0.4 -0.2,0.6 -0.1,0.2 -0.3,0.3 -0.5,0.3 h -4.6 v 17.8 c 0,0.2 -0.1,0.4 -0.3,0.5 -0.2,0.1 -0.4,0.2 -0.6,0.2 -0.3,0 -0.5,-0.1 -0.6,-0.2 -0.2,-0.1 -0.3,-0.3 -0.3,-0.5 V 11.8 h -4.6 c -0.2,0 -0.4,-0.1 -0.5,-0.2 -0.3,-0.2 -0.3,-0.4 -0.3,-0.6 z"
     style="fill:#000000"
  />
  <path
     d="m 213,29.6 c 0,-0.1 0,-0.2 0,-0.2 l 5.8,-18.7 c 0.1,-0.4 0.5,-0.6 1.1,-0.6 0.6,0 0.9,0.2 1.1,0.6 l 5.8,18.8 c 0,0 0,0 0,0.1 v 0.1 c 0,0.2 -0.1,0.4 -0.4,0.5 -0.2,0.2 -0.5,0.2 -0.7,0.2 -0.3,0 -0.6,-0.2 -0.7,-0.5 l -1.3,-4.3 h -7.6 l -1.3,4.3 c -0.1,0.3 -0.3,0.5 -0.7,0.5 -0.3,0 -0.5,-0.1 -0.7,-0.2 C 213.1,30 213,29.8 213,29.6 Z m 3.5,-5.6 h 6.7 l -3.3,-11.1 z"
     style="fill:#000000"
  />
  <path
     d="m 260.79976,16.672902 -5.60033,-6.399904 c -0.0749,-0.08552 -0.16714,-0.154095 -0.2706,-0.201168 C 254.82537,10.02476 254.71305,10.00027 254.59939,10 h -11.20076 c -0.11368,2.69e-4 -0.22598,0.02475 -0.32943,0.07183 -0.10348,0.04707 -0.19573,0.115652 -0.27061,0.201168 l -5.60038,6.399904 c -0.13065,0.14916 -0.20125,0.3415 -0.19811,0.53976 0.003,0.19826 0.0798,0.38828 0.21511,0.53322 l 11.20075,11.99982 c 0.0749,0.08024 0.16544,0.14422 0.26608,0.18798 0.10064,0.04374 0.20922,0.06632 0.31896,0.06632 0.10976,0 0.21832,-0.02258 0.31898,-0.06632 0.10064,-0.04376 0.1912,-0.10774 0.26606,-0.18798 l 11.20072,-11.99982 c 0.1348,-0.14544 0.2108,-0.33574 0.2132,-0.534 0.002,-0.19824 -0.069,-0.39032 -0.2002,-0.53898 z m -2.36319,-0.273 h -4.23722 l -3.60023,-4.799926 h 3.63723 z m -14.77992,1.59998 3.0132,7.53288 -7.03048,-7.53288 z m 8.9606,0 -3.61825,9.04586 -3.61823,-9.04586 z m -6.81846,-1.59998 3.20021,-4.26694 3.20021,4.26694 z m 8.54258,1.59998 h 4.0172 l -7.03042,7.53288 z m -10.57972,-6.399906 h 3.63725 l -3.60025,4.799926 h -4.23728 z"
     fill="#000000"
     style="stroke-width:1.99999"
  />
</svg>
