<?xml version="1.0" encoding="UTF-8" standalone="no"?>
<svg
   width="226.8"
   height="40.400002"
   viewBox="0 0 226.8 40.400002"
   version="1.1"
   id="svg24"
   style="fill:none"
   xmlns="http://www.w3.org/2000/svg"
>
  <path
     d="m 58.6,30.8 c -6,0 -10.7,-4.7 -10.7,-10.7 0,-6 4.7,-10.7 10.7,-10.7 6,0 10.7,4.7 10.7,10.7 0,6 -4.6,10.7 -10.7,10.7 z m 0,-16.1 c -3.1,0 -5.4,2.3 -5.4,5.5 0,3.2 2.3,5.5 5.4,5.5 3.1,0 5.4,-2.3 5.4,-5.5 0,-3.2 -2.2,-5.5 -5.4,-5.5 z"
     style="fill:#000;" />
  <path
     d="M 85.3,30.3 V 18.5 c 0,-2.6 -1.5,-4.1 -3.9,-4.1 -2.8,0 -4.3,2.3 -4.4,2.8 V 30.3 H 71.7 V 10.1 h 4.7 v 2.1 c 1.2,-1.7 4,-2.7 6.6,-2.7 2.2,0 4.1,0.8 5.5,2.2 1.5,1.5 2.2,3.7 2.2,6.2 v 12.4 z"
     style="fill:#000;" />
  <path
     d="m 124.9,30.6 c -2.3,0 -4.1,-0.6 -5.3,-1.7 -1.1,-1.1 -1.7,-2.8 -1.7,-5.1 V 15.1 H 115 v -5 h 2.9 V 5.4 l 5.3,-1.3 v 6 h 5.3 v 5 h -5.3 v 8.8 c 0,0.8 0.5,1.8 2.6,1.8 1,0 2.6,-0.2 2.6,-0.2 v 4.7 c -1.1,0.3 -2.4,0.4 -3.5,0.4 z"
     style="fill:#000;" />
  <path
     d="m 104,30.9 c -6.5,0 -11.1,-4.4 -11.1,-10.7 0,-6.2 4.5,-10.7 10.7,-10.7 5.8,0 10.2,4.6 10.2,10.7 0,0.7 -0.1,1.4 -0.2,2.1 v 0.1 H 98.5 c 0.7,2.4 2.7,3.7 5.6,3.7 2.4,0 3.8,-1.2 4.2,-1.7 l 4.4,2.4 c -1.9,2.6 -4.9,4.1 -8.7,4.1 z m 4.5,-12.7 c -0.6,-2.5 -2.4,-3.9 -4.9,-3.9 -2.7,0 -4.6,1.4 -5.2,3.9 z"
     style="fill:#000;" />
  <path
     d="M 143.9,29.6 V 10.8 c 0,-0.4 0.3,-0.6 0.8,-0.7 h 5.1 c 1.7,0 3.1,0.5 4.1,1.4 1,0.9 1.5,2.4 1.5,4.4 v 0.3 c 0,2 -0.5,3.5 -1.6,4.5 -1,0.9 -2.4,1.4 -4.2,1.4 h -4 v 7.5 c 0,0.2 -0.1,0.4 -0.3,0.5 -0.2,0.1 -0.4,0.2 -0.6,0.2 -0.3,0 -0.5,-0.1 -0.6,-0.2 -0.1,-0.1 -0.2,-0.3 -0.2,-0.5 z m 1.9,-9 h 4 c 1.3,0 2.2,-0.3 2.9,-1 0.7,-0.7 1,-1.8 1,-3.2 v -0.3 c 0,-2.8 -1.3,-4.2 -3.9,-4.2 h -4 z"
     style="fill:#000;" />
  <path
     d="M 158.3,24.6 V 16 c 0,-2 0.5,-3.5 1.6,-4.5 1,-0.9 2.4,-1.4 4.2,-1.4 1.8,0 3.1,0.5 4.2,1.4 1,0.9 1.6,2.4 1.6,4.5 v 8.6 c 0,2 -0.5,3.5 -1.6,4.5 -1,0.9 -2.4,1.4 -4.2,1.4 -1.8,0 -3.1,-0.5 -4.2,-1.4 -1.1,-1 -1.6,-2.5 -1.6,-4.5 z m 1.8,0 c 0,2.8 1.3,4.2 3.9,4.2 2.6,0 3.9,-1.4 3.9,-4.2 V 16 c 0,-2.8 -1.3,-4.2 -3.9,-4.2 -2.6,0 -3.9,1.4 -3.9,4.2 z"
     id="path14"
     style="fill:#000;" />
  <path
     d="M 173.5,24.6 V 16 c 0,-2 0.5,-3.5 1.6,-4.4 1.1,-1 2.5,-1.4 4.2,-1.4 1.7,0 3.1,0.4 4.2,1.3 1,0.9 1.5,2 1.5,3.3 0,0.4 -0.1,0.7 -0.2,0.9 -0.1,0.1 -0.4,0.2 -0.7,0.2 -0.6,0 -0.9,-0.2 -0.9,-0.7 0,-0.3 -0.1,-0.5 -0.1,-0.8 -0.1,-0.3 -0.2,-0.5 -0.3,-0.9 -0.2,-0.3 -0.4,-0.6 -0.6,-0.8 -0.3,-0.2 -0.6,-0.4 -1.1,-0.6 -0.5,-0.2 -1,-0.2 -1.7,-0.2 -2.6,0 -4,1.4 -4,4.2 v 8.6 c 0,2.8 1.4,4.2 4.1,4.2 0.8,0 1.4,-0.1 1.9,-0.3 0.5,-0.2 0.9,-0.5 1.1,-0.9 0.2,-0.4 0.4,-0.7 0.5,-1 0.1,-0.3 0.2,-0.7 0.2,-1.1 0.1,-0.5 0.4,-0.7 0.9,-0.7 0.3,0 0.6,0.1 0.7,0.2 0.1,0.2 0.2,0.5 0.2,0.9 0,1.3 -0.5,2.4 -1.6,3.3 -1,0.9 -2.4,1.4 -4.2,1.4 -1.7,0 -3.1,-0.5 -4.1,-1.4 -1.1,-1.2 -1.6,-2.7 -1.6,-4.7 z"
     id="path16"
     style="fill:#000;" />
  <path
     d="m 187.3,29.7 c 0,-0.2 0.1,-0.4 0.2,-0.6 l 9.2,-17.2 h -8.3 c -0.2,0 -0.4,-0.1 -0.5,-0.2 -0.1,-0.2 -0.2,-0.4 -0.2,-0.6 0,-0.2 0.1,-0.4 0.2,-0.6 0.1,-0.2 0.3,-0.2 0.5,-0.2 h 10 c 0.5,0 0.7,0.2 0.7,0.6 0,0.2 -0.1,0.5 -0.2,0.7 l -9.2,17.2 h 9 c 0.2,0 0.4,0.1 0.5,0.2 0.1,0.2 0.2,0.4 0.2,0.6 0,0.2 -0.1,0.4 -0.2,0.6 -0.1,0.2 -0.3,0.3 -0.5,0.3 H 188 c -0.5,-0.2 -0.7,-0.4 -0.7,-0.8 z"
     id="path18"
     style="fill:#000;" />
  <path
     d="m 201.1,11 c 0,-0.2 0.1,-0.4 0.2,-0.6 0.1,-0.2 0.3,-0.3 0.5,-0.3 h 11.1 c 0.2,0 0.4,0.1 0.5,0.2 0.1,0.2 0.2,0.4 0.2,0.6 0,0.2 -0.1,0.4 -0.2,0.6 -0.1,0.2 -0.3,0.3 -0.5,0.3 h -4.6 v 17.8 c 0,0.2 -0.1,0.4 -0.3,0.5 -0.2,0.1 -0.4,0.2 -0.6,0.2 -0.3,0 -0.5,-0.1 -0.6,-0.2 -0.2,-0.1 -0.3,-0.3 -0.3,-0.5 V 11.8 h -4.6 c -0.2,0 -0.4,-0.1 -0.5,-0.2 -0.3,-0.2 -0.3,-0.4 -0.3,-0.6 z"
     style="fill:#000;" />
  <path
     d="m 213,29.6 c 0,-0.1 0,-0.2 0,-0.2 l 5.8,-18.7 c 0.1,-0.4 0.5,-0.6 1.1,-0.6 0.6,0 0.9,0.2 1.1,0.6 l 5.8,18.8 c 0,0 0,0 0,0.1 v 0.1 c 0,0.2 -0.1,0.4 -0.4,0.5 -0.2,0.2 -0.5,0.2 -0.7,0.2 -0.3,0 -0.6,-0.2 -0.7,-0.5 l -1.3,-4.3 h -7.6 l -1.3,4.3 c -0.1,0.3 -0.3,0.5 -0.7,0.5 -0.3,0 -0.5,-0.1 -0.7,-0.2 C 213.1,30 213,29.8 213,29.6 Z m 3.5,-5.6 h 6.7 l -3.3,-11.1 z"
     style="fill:#000;" />
  <path
     style="fill:#ffd103;stroke-width:0.999993;"
     d="m 40.099521,20.181 a 19.999767,19.999999 0 0 1 -9.999871,17.320478 19.999767,19.999999 0 0 1 -19.999779,0 A 19.999767,19.999999 0 0 1 0.1,20.181" />
  <path
     style="fill:#0057b8;stroke-width:0.999993;"
     d="m 40.116,20.200011 a 19.999767,19.999999 0 0 0 -9.999871,-17.3205155 19.999767,19.999999 0 0 0 -19.99978,0 19.999767,19.999999 0 0 0 -9.9998704,17.3205155" />
</svg>
