<svg xmlns="http://www.w3.org/2000/svg" xmlns:xlink="http://www.w3.org/1999/xlink" width="403.086" height="60" viewBox="0 0 403.086 60"><defs><style>.a{fill:#ff002e;}.b{fill:url(#a);}</style><linearGradient id="a" x1="0.998" y1="1.037" x2="-0.012" y2="0.002" gradientUnits="objectBoundingBox"><stop offset="0" stop-color="#ff002e"/><stop offset="0.522" stop-color="#ff244b"/><stop offset="1" stop-color="#ff4263"/></linearGradient></defs><g transform="translate(-44.001 -23.375)"><g transform="translate(124.562 43.749)"><g transform="translate(0 0)"><path d="M155.347,58.81H147.1V56.973h10.221v1.283c0,6.34-3.638,10.361-9.633,10.361-6.583,0-10.706-4.748-10.706-10.847,0-6.167,4.227-10.88,10.81-10.88,5.268,0,7.658,2.773,7.658,2.773l-1.144,1.489a9.284,9.284,0,0,0-6.515-2.391c-5.51,0-8.8,4.09-8.8,9.009,0,4.887,3.188,8.976,8.7,8.976,4.575,0,7.658-3.016,7.658-7.728Z" transform="translate(-136.982 -46.89)" style="fill:#fff" /><path d="M173.785,47.41h.485L184.423,68.2h-2.252l-1.975-3.95h-12.3l-1.975,3.95H163.7Zm.381,4.019h-.277L169.037,62l-.207.382H179.26L179.052,62Z" transform="translate(-140.551 -46.959)" style="fill:#fff" /><path d="M191.021,67.716l13.306-18.47H191.368V47.41h16.217V47.9L194.417,66.364h12.821V68.2H191.021Z" transform="translate(-144.2 -46.959)" style="fill:#fff" /><path d="M230.219,58.88h-11.5v7.484h13.063V68.2H216.741V47.41h15.038v1.836H218.716v7.8h11.5Z" transform="translate(-147.636 -46.959)" style="fill:#fff" /><path d="M238.38,47.41h16.806v1.836h-7.45V68.2H245.8V49.246H238.38Z" transform="translate(-150.526 -46.959)" style="fill:#fff" /><path d="M268.184,47.41h.484L278.822,68.2H276.57l-1.975-3.95h-12.3l-1.975,3.95H258.1Zm.38,4.019h-.276L263.436,62l-.207.382h10.429L273.451,62Z" transform="translate(-153.16 -46.959)" style="fill:#fff" /><path d="M286.59,68.326a1.473,1.473,0,0,1,0,2.946,1.473,1.473,0,1,1,0-2.946Z" transform="translate(-156.767 -49.753)" style="fill:#fff" /><path d="M295.02,47.41h8.316c5.163,0,8.212,2.356,8.212,6.86,0,4.713-3.188,7.138-8.316,7.138h-6.237V68.2H295.02Zm8.281,1.836h-6.307V59.572H303.3c3.777,0,6.272-1.524,6.272-5.232C309.573,50.84,307.043,49.246,303.3,49.246Z" transform="translate(-158.092 -46.959)" style="fill:#fff" /><path d="M320.979,68.2V47.41h1.975V66.364H335.36V68.2Z" transform="translate(-161.559 -46.959)" style="fill:#fff" /></g></g><g transform="translate(320.454 43.749)"><path class="a" d="M363.074,47.41h8.316c5.163,0,8.213,2.356,8.213,6.86,0,4.713-3.188,7.138-8.318,7.138h-6.237V68.2h-1.975Zm8.28,1.836h-6.306V59.572h6.306c3.778,0,6.273-1.524,6.273-5.232C377.627,50.84,375.1,49.246,371.354,49.246Z" transform="translate(-363.074 -46.959)"/><path class="a" d="M387.274,57.77c0-6.167,4.193-10.88,10.706-10.88s10.673,4.712,10.673,10.88c0,6.1-4.158,10.847-10.673,10.847S387.274,63.868,387.274,57.77Zm19.4,0c0-4.92-3.292-9.009-8.7-9.009-5.439,0-8.7,4.09-8.7,9.009,0,4.887,3.258,8.976,8.7,8.976C403.387,66.746,406.678,62.656,406.678,57.77Z" transform="translate(-366.306 -46.89)"/><path class="a" d="M435.578,65.879a9.7,9.7,0,0,1-7.172,2.737A10.516,10.516,0,0,1,417.594,57.77a10.5,10.5,0,0,1,10.811-10.88,9.755,9.755,0,0,1,7.172,2.7l-1.144,1.525a8.589,8.589,0,0,0-5.994-2.358,8.994,8.994,0,0,0,0,17.985,8.589,8.589,0,0,0,5.994-2.358Z" transform="translate(-370.356 -46.89)"/><path class="a" d="M442.752,67.716l13.307-18.47H443.1V47.41h16.217V47.9L446.148,66.364h12.82V68.2H442.752Z" transform="translate(-373.717 -46.959)"/><path class="a" d="M465.592,47.41H482.4v1.836h-7.45V68.2h-1.941V49.246h-7.416Z" transform="translate(-376.768 -46.959)"/><path class="a" d="M495.4,47.41h.484L506.034,68.2h-2.253l-1.975-3.95h-12.3l-1.975,3.95h-2.218Zm.381,4.019H495.5L490.648,62l-.207.382h10.43L500.663,62Z" transform="translate(-379.402 -46.959)"/></g><path class="b" d="M64.8,32.907a9.531,9.531,0,1,1,9.529,9.53A9.533,9.533,0,0,1,64.8,32.907ZM95.985,64.1a9.531,9.531,0,1,0-9.529-9.53A9.531,9.531,0,0,0,95.985,64.1Zm-43.321-.866A8.664,8.664,0,1,0,44,54.567,8.664,8.664,0,0,0,52.664,63.231Zm0-22.527a7.8,7.8,0,1,0-7.8-7.8A7.8,7.8,0,0,0,52.664,40.7ZM95.985,83.375a7.148,7.148,0,1,0-7.146-7.147A7.149,7.149,0,0,0,95.985,83.375Zm0-45.7a4.765,4.765,0,1,0-4.763-4.764A4.766,4.766,0,0,0,95.984,37.671ZM52.663,80.992A4.765,4.765,0,1,0,47.9,76.228,4.766,4.766,0,0,0,52.663,80.992ZM74.329,60.631a6.065,6.065,0,1,0-6.068-6.068A6.064,6.064,0,0,0,74.329,60.631Zm0,21.877a6.282,6.282,0,1,0-6.286-6.283A6.281,6.281,0,0,0,74.33,82.509Z"/></g></svg>