<?xml version="1.0" encoding="UTF-8" standalone="no"?>
<svg
   width="126.633"
   height="60"
   viewBox="0 0 126.633 60.000001"
   version="1.1"
   xmlns="http://www.w3.org/2000/svg"
   xmlns:svg="http://www.w3.org/2000/svg">
  <defs>
    <style>.a{fill:#ff002e;}.b{fill:url(#a);}</style>
    <linearGradient
       id="a"
       x1="0.99800003"
       y1="1.0369999"
       x2="-0.012"
       y2="0.0020000001"
       gradientUnits="objectBoundingBox">
      <stop
         offset="0"
         stop-color="#ff002e" />
      <stop
         offset="0.522"
         stop-color="#ff244b" />
      <stop
         offset="1"
         stop-color="#ff4263" />
    </linearGradient>
    <linearGradient
       id="a-7"
       x1="104.0865"
       y1="86.67101"
       x2="42.724693"
       y2="23.790355"
       gradientUnits="userSpaceOnUse"
       gradientTransform="scale(1.012571,0.98758508)">
      <stop
         offset="0"
         stop-color="#ff002e" />
      <stop
         offset="0.522"
         stop-color="#ff244b" />
      <stop
         offset="1"
         stop-color="#ff4263" />
    </linearGradient>
  </defs>
  <g transform="translate(-320.453,-23.339724)">
    <g transform="translate(320.454,43.749)">
      <path
         class="a"
         d="m 363.074,47.41 h 8.316 c 5.163,0 8.213,2.356 8.213,6.86 0,4.713 -3.188,7.138 -8.318,7.138 h -6.237 V 68.2 h -1.975 z m 8.28,1.836 h -6.306 v 10.326 h 6.306 c 3.778,0 6.273,-1.524 6.273,-5.232 0,-3.5 -2.527,-5.094 -6.273,-5.094 z"
         transform="translate(-363.074,-46.959)" />
      <path
         class="a"
         d="m 387.274,57.77 c 0,-6.167 4.193,-10.88 10.706,-10.88 6.513,0 10.673,4.712 10.673,10.88 0,6.1 -4.158,10.847 -10.673,10.847 -6.515,0 -10.706,-4.749 -10.706,-10.847 z m 19.4,0 c 0,-4.92 -3.292,-9.009 -8.7,-9.009 -5.439,0 -8.7,4.09 -8.7,9.009 0,4.887 3.258,8.976 8.7,8.976 5.413,0 8.704,-4.09 8.704,-8.976 z"
         transform="translate(-366.306,-46.89)" />
      <path
         class="a"
         d="m 435.578,65.879 a 9.7,9.7 0 0 1 -7.172,2.737 10.516,10.516 0 0 1 -10.812,-10.846 10.5,10.5 0 0 1 10.811,-10.88 9.755,9.755 0 0 1 7.172,2.7 l -1.144,1.525 a 8.589,8.589 0 0 0 -5.994,-2.358 8.994,8.994 0 0 0 0,17.985 8.589,8.589 0 0 0 5.994,-2.358 z"
         transform="translate(-370.356,-46.89)" />
      <path
         class="a"
         d="m 442.752,67.716 13.307,-18.47 H 443.1 V 47.41 h 16.217 v 0.49 l -13.169,18.464 h 12.82 V 68.2 h -16.216 z"
         transform="translate(-373.717,-46.959)" />
      <path
         class="a"
         d="M 465.592,47.41 H 482.4 v 1.836 h -7.45 V 68.2 h -1.941 V 49.246 h -7.416 z"
         transform="translate(-376.768,-46.959)" />
      <path
         class="a"
         d="m 495.4,47.41 h 0.484 l 10.15,20.79 h -2.253 l -1.975,-3.95 h -12.3 l -1.975,3.95 h -2.218 z m 0.381,4.019 H 495.5 L 490.648,62 l -0.207,0.382 h 10.43 L 500.663,62 Z"
         transform="translate(-379.402,-46.959)" />
    </g>
  </g>
</svg>
