<?xml version="1.0" encoding="UTF-8" standalone="no"?>
<svg
   width="128.5"
   height="40.400002"
   viewBox="0 0 128.5 40.400002"
   version="1.1"
   style="fill:none"
   xmlns="http://www.w3.org/2000/svg"
   xmlns:svg="http://www.w3.org/2000/svg">
  <defs  />
  <path
     d="M 40.4,20.2 C 40.4,31.4 31.3,40.4 20.2,40.4 9,40.4 0,31.3 0,20.2 0,9 9.1,0 20.2,0 31.3,0 40.4,9 40.4,20.2 Z"
     style="fill:#ffd200;" />
  <path
     d="m 58.6,30.8 c -6,0 -10.7,-4.7 -10.7,-10.7 0,-6 4.7,-10.7 10.7,-10.7 6,0 10.7,4.7 10.7,10.7 0,6 -4.6,10.7 -10.7,10.7 z m 0,-16.1 c -3.1,0 -5.4,2.3 -5.4,5.5 0,3.2 2.3,5.5 5.4,5.5 3.1,0 5.4,-2.3 5.4,-5.5 0,-3.2 -2.2,-5.5 -5.4,-5.5 z"
     style="fill:#000;" />
  <path
     d="M 85.3,30.3 V 18.5 c 0,-2.6 -1.5,-4.1 -3.9,-4.1 -2.8,0 -4.3,2.3 -4.4,2.8 V 30.3 H 71.7 V 10.1 h 4.7 v 2.1 c 1.2,-1.7 4,-2.7 6.6,-2.7 2.2,0 4.1,0.8 5.5,2.2 1.5,1.5 2.2,3.7 2.2,6.2 v 12.4 z"
     style="fill:#000;" />
  <path
     d="m 124.9,30.6 c -2.3,0 -4.1,-0.6 -5.3,-1.7 -1.1,-1.1 -1.7,-2.8 -1.7,-5.1 V 15.1 H 115 v -5 h 2.9 V 5.4 l 5.3,-1.3 v 6 h 5.3 v 5 h -5.3 v 8.8 c 0,0.8 0.5,1.8 2.6,1.8 1,0 2.6,-0.2 2.6,-0.2 v 4.7 c -1.1,0.3 -2.4,0.4 -3.5,0.4 z"
     style="fill:#000;" />
  <path
     d="m 104,30.9 c -6.5,0 -11.1,-4.4 -11.1,-10.7 0,-6.2 4.5,-10.7 10.7,-10.7 5.8,0 10.2,4.6 10.2,10.7 0,0.7 -0.1,1.4 -0.2,2.1 v 0.1 H 98.5 c 0.7,2.4 2.7,3.7 5.6,3.7 2.4,0 3.8,-1.2 4.2,-1.7 l 4.4,2.4 c -1.9,2.6 -4.9,4.1 -8.7,4.1 z m 4.5,-12.7 c -0.6,-2.5 -2.4,-3.9 -4.9,-3.9 -2.7,0 -4.6,1.4 -5.2,3.9 z"
     style="fill:#000;" />
</svg>
