<?xml version="1.0" encoding="UTF-8" standalone="no"?>
<svg
   width="128.39999"
   height="40.400002"
   viewBox="0 0 128.39999 40.400002"
   version="1.1"
   style="fill:none"
   xmlns="http://www.w3.org/2000/svg"
>
  <path
     d="m 39.99952,19.981 a 19.999767,19.999999 0 0 1 -9.99987,17.320478 19.999767,19.999999 0 0 1 -19.9997791,0 A 19.999767,19.999999 0 0 1 0,19.981"
     style="fill:#ffd103;" />
  <path
     d="m 40.016,20.000011 a 19.999767,19.999999 0 0 0 -9.999871,-17.3205155 19.999767,19.999999 0 0 0 -19.99978,0 19.999767,19.999999 0 0 0 -9.99987041,17.3205155"
     style="fill:#0057b8;" />
  <path
     d="M 58.500001,30.6 C 52.5,30.6 47.799999,25.9 47.799999,19.9 c 0,-6 4.700001,-10.7 10.700002,-10.7 6,0 10.699999,4.7 10.699999,10.7 0,6 -4.599999,10.7 -10.699999,10.7 z m 0,-16.1 C 55.399999,14.5 53.1,16.8 53.1,20 c 0,3.2 2.299999,5.5 5.400001,5.5 3.099999,0 5.399998,-2.3 5.399998,-5.5 0,-3.2 -2.199999,-5.5 -5.399998,-5.5 z"
     style="fill:#fff;" />
  <path
     d="M 85.2,30.1 V 18.3 c 0,-2.6 -1.5,-4.1 -3.9,-4.1 -2.8,0 -4.3,2.3 -4.4,2.8 V 30.1 H 71.6 V 9.9 h 4.700001 V 12 C 77.499999,10.3 80.3,9.3 82.9,9.3 c 2.199999,0 4.1,0.8 5.499999,2.2 1.500002,1.5 2.200002,3.7 2.200002,6.2 v 12.4 z"
     style="fill:#fff;" />
  <path
     d="m 124.80001,30.4 c -2.30002,0 -4.10002,-0.6 -5.30001,-1.7 -1.1,-1.1 -1.70001,-2.8 -1.70001,-5.1 v -8.7 h -2.89998 v -5 h 2.89998 V 5.2 L 123.1,3.9 v 6 h 5.3 v 5 h -5.3 v 8.8 c 0,0.8 0.5,1.8 2.60001,1.8 1,0 2.59999,-0.2 2.59999,-0.2 V 30 c -1.09999,0.3 -2.40001,0.4 -3.49999,0.4 z"
     style="fill:#fff;" />
  <path
     d="M 103.9,30.7 C 97.400001,30.7 92.8,26.3 92.8,20 92.8,13.8 97.3,9.3 103.50001,9.3 109.29999,9.3 113.7,13.9 113.7,20 c 0,0.7 -0.10001,1.4 -0.19999,2.1 v 0.1 H 98.400001 c 0.7,2.4 2.699999,3.7 5.600009,3.7 2.4,0 3.8,-1.2 4.19999,-1.7 l 4.39999,2.4 c -1.9,2.6 -4.89999,4.1 -8.69999,4.1 z M 108.39999,18 c -0.59998,-2.5 -2.4,-3.9 -4.89998,-3.9 -2.70002,0 -4.60001,1.4 -5.200009,3.9 z"
     style="fill:#fff;" />
</svg>
