<?xml version="1.0" encoding="UTF-8" standalone="no"?>
<svg
   width="254.36301"
   height="60"
   viewBox="0 0 254.36301 60"
   version="1.1"
   xmlns="http://www.w3.org/2000/svg"
   xmlns:svg="http://www.w3.org/2000/svg">
  <defs>
    <style>.a{fill:#ff002e;}.b{fill:url(#a);}</style>
    <linearGradient
       id="a"
       x1="104.0865"
       y1="86.67101"
       x2="42.724693"
       y2="23.790355"
       gradientUnits="userSpaceOnUse"
       gradientTransform="scale(1.012571,0.98758508)">
      <stop
         offset="0"
         stop-color="#ff002e" />
      <stop
         offset="0.522"
         stop-color="#ff244b" />
      <stop
         offset="1"
         stop-color="#ff4263" />
    </linearGradient>
  </defs>
  <g transform="translate(-44,-23.375)">
    <g transform="translate(124.562,43.749)">
      <g
         id="g69">
        <path
           d="M 155.347,58.81 H 147.1 v -1.837 h 10.221 v 1.283 c 0,6.34 -3.638,10.361 -9.633,10.361 -6.583,0 -10.706,-4.748 -10.706,-10.847 0,-6.167 4.227,-10.88 10.81,-10.88 5.268,0 7.658,2.773 7.658,2.773 l -1.144,1.489 a 9.284,9.284 0 0 0 -6.515,-2.391 c -5.51,0 -8.8,4.09 -8.8,9.009 0,4.887 3.188,8.976 8.7,8.976 4.575,0 7.658,-3.016 7.658,-7.728 z"
           transform="translate(-136.982,-46.89)"
           style="fill:#000;;" />
        <path
           d="m 173.785,47.41 h 0.485 l 10.153,20.79 h -2.252 l -1.975,-3.95 h -12.3 l -1.975,3.95 H 163.7 Z m 0.381,4.019 h -0.277 L 169.037,62 168.83,62.382 h 10.43 L 179.052,62 Z"
           transform="translate(-140.551,-46.959)"
           style="fill:#000;;" />
        <path
           d="m 191.021,67.716 13.306,-18.47 H 191.368 V 47.41 h 16.217 v 0.49 l -13.168,18.464 h 12.821 V 68.2 h -16.217 z"
           transform="translate(-144.2,-46.959)"
           style="fill:#000;;" />
        <path
           d="m 230.219,58.88 h -11.5 v 7.484 h 13.063 V 68.2 H 216.741 V 47.41 h 15.038 v 1.836 h -13.063 v 7.8 h 11.5 z"
           transform="translate(-147.636,-46.959)"
           style="fill:#000;;" />
        <path
           d="m 238.38,47.41 h 16.806 v 1.836 h -7.45 V 68.2 H 245.8 V 49.246 h -7.42 z"
           transform="translate(-150.526,-46.959)"
           style="fill:#000;;" />
        <path
           d="m 268.184,47.41 h 0.484 l 10.154,20.79 h -2.252 l -1.975,-3.95 h -12.3 l -1.975,3.95 h -2.22 z m 0.38,4.019 h -0.276 L 263.436,62 l -0.207,0.382 h 10.429 L 273.451,62 Z"
           transform="translate(-153.16,-46.959)"
           style="fill:#000;;" />
        <path
           d="m 286.59,68.326 a 1.473,1.473 0 0 1 0,2.946 1.473,1.473 0 1 1 0,-2.946 z"
           transform="translate(-156.767,-49.753)"
           style="fill:#000;;" />
        <path
           d="m 295.02,47.41 h 8.316 c 5.163,0 8.212,2.356 8.212,6.86 0,4.713 -3.188,7.138 -8.316,7.138 h -6.237 V 68.2 h -1.975 z m 8.281,1.836 h -6.307 v 10.326 h 6.306 c 3.777,0 6.272,-1.524 6.272,-5.232 10e-4,-3.5 -2.529,-5.094 -6.272,-5.094 z"
           transform="translate(-158.092,-46.959)"
           style="fill:#000;;" />
        <path
           d="M 320.979,68.2 V 47.41 h 1.975 V 66.364 H 335.36 V 68.2 Z"
           transform="translate(-161.559,-46.959)"
           style="fill:#000;;" />
      </g>
    </g>
    <path
       class="b"
       d="m 64.8,32.907 a 9.531,9.531 0 1 1 9.529,9.53 9.533,9.533 0 0 1 -9.529,-9.53 z M 95.985,64.1 a 9.531,9.531 0 1 0 -9.529,-9.53 9.531,9.531 0 0 0 9.529,9.53 z M 52.664,63.234 A 8.664,8.664 0 1 0 44,54.567 a 8.664,8.664 0 0 0 8.664,8.664 z m 0,-22.527 a 7.8,7.8 0 1 0 -7.8,-7.8 7.8,7.8 0 0 0 7.8,7.793 z m 43.321,42.668 a 7.148,7.148 0 1 0 -7.146,-7.147 7.149,7.149 0 0 0 7.146,7.147 z m 0,-45.7 a 4.765,4.765 0 1 0 -4.763,-4.764 4.766,4.766 0 0 0 4.762,4.76 z M 52.663,80.992 A 4.765,4.765 0 1 0 47.9,76.228 4.766,4.766 0 0 0 52.663,80.992 Z M 74.329,60.631 a 6.065,6.065 0 1 0 -6.068,-6.068 6.064,6.064 0 0 0 6.068,6.068 z m 0,21.877 a 6.282,6.282 0 1 0 -6.286,-6.283 6.281,6.281 0 0 0 6.287,6.284 z"
       style="fill:url(#a)" />
  </g>
</svg>
