<?xml version="1.0" encoding="UTF-8" standalone="no"?>
<svg
   width="117.2"
   height="40.400002"
   viewBox="0 0 117.19999 40.400003"
   version="1.1"
   style="fill:none"
   xmlns="http://www.w3.org/2000/svg"
   xmlns:svg="http://www.w3.org/2000/svg">
  <defs id="defs29" />
  <path
     d="m 0,29.45 v -18.8 c 0,-0.4 0.3,-0.6 0.8,-0.7 h 5.1 c 1.7,0 3.1,0.5 4.1,1.4 1,0.9 1.5,2.4 1.5,4.4 v 0.3 c 0,2 -0.5,3.5 -1.6,4.5 -1,0.9 -2.4,1.4 -4.2,1.4 h -4 v 7.5 c 0,0.2 -0.1,0.4 -0.3,0.5 -0.2,0.1 -0.4,0.2 -0.6,0.2 -0.3,0 -0.5,-0.1 -0.6,-0.2 C 0.1,29.85 0,29.65 0,29.45 Z m 1.9,-9 h 4 c 1.3,0 2.2,-0.3 2.9,-1 0.7,-0.7 1,-1.8 1,-3.2 v -0.3 c 0,-2.8 -1.3,-4.2 -3.9,-4.2 h -4 z"
     style="fill:#ffffff"
  />
  <path
     d="m 14.4,24.45 v -8.6 c 0,-2 0.5,-3.5 1.6,-4.5 1,-0.9 2.4,-1.4 4.2,-1.4 1.8,0 3.1,0.5 4.2,1.4 1,0.9 1.6,2.4 1.6,4.5 v 8.6 c 0,2 -0.5,3.5 -1.6,4.5 -1,0.9 -2.4,1.4 -4.2,1.4 -1.8,0 -3.1,-0.5 -4.2,-1.4 -1.1,-1 -1.6,-2.5 -1.6,-4.5 z m 1.8,0 c 0,2.8 1.3,4.2 3.9,4.2 2.6,0 3.9,-1.4 3.9,-4.2 v -8.6 c 0,-2.8 -1.3,-4.2 -3.9,-4.2 -2.6,0 -3.9,1.4 -3.9,4.2 z"
     style="fill:#ffffff"
  />
  <path
     d="m 29.6,24.45 v -8.6 c 0,-2 0.5,-3.5 1.6,-4.4 1.1,-1 2.5,-1.4 4.2,-1.4 1.7,0 3.1,0.4 4.2,1.3 1,0.9 1.5,2 1.5,3.3 0,0.4 -0.1,0.7 -0.2,0.9 -0.1,0.1 -0.4,0.2 -0.7,0.2 -0.6,0 -0.9,-0.2 -0.9,-0.7 0,-0.3 -0.1,-0.5 -0.1,-0.8 -0.1,-0.3 -0.2,-0.5 -0.3,-0.9 -0.2,-0.3 -0.4,-0.6 -0.6,-0.8 -0.3,-0.2 -0.6,-0.4 -1.1,-0.6 -0.5,-0.2 -1,-0.2 -1.7,-0.2 -2.6,0 -4,1.4 -4,4.2 v 8.6 c 0,2.8 1.4,4.2 4.1,4.2 0.8,0 1.4,-0.1 1.9,-0.3 0.5,-0.2 0.9,-0.5 1.1,-0.9 0.2,-0.4 0.4,-0.7 0.5,-1 0.1,-0.3 0.2,-0.7 0.2,-1.1 0.1,-0.5 0.4,-0.7 0.9,-0.7 0.3,0 0.6,0.1 0.7,0.2 0.1,0.2 0.2,0.5 0.2,0.9 0,1.3 -0.5,2.4 -1.6,3.3 -1,0.9 -2.4,1.4 -4.2,1.4 -1.7,0 -3.1,-0.5 -4.1,-1.4 -1.1,-1.2 -1.6,-2.7 -1.6,-4.7 z"
     style="fill:#ffffff"
  />
  <path
     d="m 43.4,29.55 c 0,-0.2 0.1,-0.4 0.2,-0.6 l 9.2,-17.2 h -8.3 c -0.2,0 -0.4,-0.1 -0.5,-0.2 -0.1,-0.2 -0.2,-0.4 -0.2,-0.6 0,-0.2 0.1,-0.4 0.2,-0.6 0.1,-0.2 0.3,-0.2 0.5,-0.2 h 10 c 0.5,0 0.7,0.2 0.7,0.6 0,0.2 -0.1,0.5 -0.2,0.7 l -9.2,17.2 h 9 c 0.2,0 0.4,0.1 0.5,0.2 0.1,0.2 0.2,0.4 0.2,0.6 0,0.2 -0.1,0.4 -0.2,0.6 -0.1,0.2 -0.3,0.3 -0.5,0.3 H 44.1 c -0.5,-0.2 -0.7,-0.4 -0.7,-0.8 z"
     style="fill:#ffffff"
  />
  <path
     d="m 57.2,10.85 c 0,-0.2 0.1,-0.4 0.2,-0.6 0.1,-0.2 0.3,-0.3 0.5,-0.3 H 69 c 0.2,0 0.4,0.1 0.5,0.2 0.1,0.2 0.2,0.4 0.2,0.6 0,0.2 -0.1,0.4 -0.2,0.6 -0.1,0.2 -0.3,0.3 -0.5,0.3 h -4.6 v 17.8 c 0,0.2 -0.1,0.4 -0.3,0.5 -0.2,0.1 -0.4,0.2 -0.6,0.2 -0.3,0 -0.5,-0.1 -0.6,-0.2 -0.2,-0.1 -0.3,-0.3 -0.3,-0.5 V 11.65 H 58 c -0.2,0 -0.4,-0.1 -0.5,-0.2 -0.3,-0.2 -0.3,-0.4 -0.3,-0.6 z"
     style="fill:#ffffff"
  />
  <path
     d="m 69.1,29.45 c 0,-0.1 0,-0.2 0,-0.2 l 5.8,-18.7 c 0.1,-0.4 0.5,-0.6 1.1,-0.6 0.6,0 0.9,0.2 1.1,0.6 l 5.8,18.8 c 0,0 0,0 0,0.1 v 0.1 c 0,0.2 -0.1,0.4 -0.4,0.5 -0.2,0.2 -0.5,0.2 -0.7,0.2 -0.3,0 -0.6,-0.2 -0.7,-0.5 l -1.3,-4.3 h -7.6 l -1.3,4.3 c -0.1,0.3 -0.3,0.5 -0.7,0.5 -0.3,0 -0.5,-0.1 -0.7,-0.2 -0.3,-0.2 -0.4,-0.4 -0.4,-0.6 z m 3.5,-5.6 h 6.7 L 76,12.75 Z"
     style="fill:#ffffff"
  />
  <path
     d="m 116.79974,16.672902 -5.60033,-6.399904 c -0.0749,-0.08552 -0.16714,-0.154095 -0.2706,-0.201168 C 110.82535,10.02476 110.71304,10.00027 110.59938,10 H 99.398624 c -0.113679,2.69e-4 -0.225979,0.02475 -0.329439,0.07183 -0.10348,0.04707 -0.195719,0.115652 -0.270599,0.201168 l -5.600375,6.399904 c -0.130651,0.14916 -0.201252,0.3415 -0.198111,0.53976 0.0031,0.19826 0.0798,0.38828 0.215113,0.53322 l 11.200737,11.99982 c 0.0749,0.08024 0.16544,0.14422 0.26608,0.18798 0.10064,0.04374 0.20922,0.06632 0.31896,0.06632 0.10976,0 0.21832,-0.02258 0.31898,-0.06632 0.10064,-0.04376 0.1912,-0.10774 0.26606,-0.18798 l 11.20071,-11.99982 c 0.1348,-0.14544 0.2108,-0.33574 0.2132,-0.534 0.002,-0.19824 -0.069,-0.39032 -0.2002,-0.53898 z m -2.36319,-0.273 h -4.23721 l -3.60023,-4.799926 h 3.63723 z m -14.779906,1.59998 3.013196,7.53288 -7.030466,-7.53288 z m 8.960596,0 -3.61825,9.04586 -3.61823,-9.04586 z m -6.81846,-1.59998 3.20021,-4.26694 3.20021,4.26694 z m 8.54258,1.59998 h 4.01719 l -7.03041,7.53288 z M 99.761643,11.599976 h 3.637247 l -3.600247,4.799926 h -4.237269 z"
     fill="#ffffff"
     style="stroke-width:1.99999"
  />
</svg>
